<svg aria-hidden="true" style="position:absolute;width:0;height:0" xmlns="http://www.w3.org/2000/svg" overflow="hidden"><defs><symbol id="icon-logo1" viewBox="0 0 29 32"><path d="M3.84 0l4.677 4.428h13.046v12.351l4.677 4.428V.001H3.84z"/><path  d="M0 4.241v20.6h21.76v-8.188L8.655 4.246 0 4.241zm17.615 17.587H3.443V7.973h1.002V20.89h13.17v.938zM6.266 28.662l.524-1.078h.438l-.764 1.437v.838h-.397v-.838l-.764-1.437h.439l.524 1.078zm2.247.667h-.881l-.184.53h-.411l.859-2.275h.355l.861 2.275h-.413l-.186-.53zm-.77-.319h.659l-.33-.944-.33.944zm2.328.234c0-.105.029-.202.086-.289.058-.089.17-.193.339-.314a1.498 1.498 0 01-.182-.276l-.004-.008a.568.568 0 01-.052-.226c0-.179.054-.319.163-.422s.254-.156.437-.156a.57.57 0 01.406.147c.106.097.16.218.16.361v.003a.497.497 0 01-.074.262l.001-.002a.858.858 0 01-.233.236l-.003.002-.155.113.44.518a.914.914 0 00.095-.417h.33c0 .28-.065.509-.196.689l.334.396h-.44l-.128-.152a.93.93 0 01-.558.183h-.025.001c-.225 0-.405-.06-.54-.179a.597.597 0 01-.202-.447v-.021.001zm.753.343a.58.58 0 00.359-.128l-.497-.586-.049.035c-.125.095-.188.203-.188.325 0 .105.034.191.102.256a.375.375 0 00.254.099h.019-.001zm-.21-1.466c0 .088.054.197.161.33l.173-.118.049-.039a.283.283 0 00.097-.212v-.009-.002a.2.2 0 00-.067-.149.233.233 0 00-.162-.064h-.019a.224.224 0 00-.167.075.276.276 0 00-.066.179v.01zm4.134.997c-.023.243-.113.432-.269.568s-.364.204-.623.204a.902.902 0 01-.48-.128.86.86 0 01-.317-.362l-.002-.005a1.302 1.302 0 01-.117-.544v-.22c0-.214.038-.403.114-.567a.871.871 0 01.326-.378.913.913 0 01.494-.133c.251 0 .453.068.606.205s.243.329.268.578h-.394c-.019-.163-.067-.281-.144-.353-.076-.073-.188-.109-.336-.109a.464.464 0 00-.397.189c-.092.125-.138.309-.141.552v.202c0 .246.044.433.132.563s.218.194.387.194c.155 0 .272-.035.35-.105s.128-.186.148-.348h.394zm2.17-.338c0 .223-.038.419-.115.588a.88.88 0 01-.332.388.905.905 0 01-.494.134.92.92 0 01-.493-.134.897.897 0 01-.332-.38l-.002-.006a1.335 1.335 0 01-.119-.555v-.023.001-.128c0-.222.038-.418.117-.588s.19-.3.333-.389c.144-.091.308-.136.493-.136s.35.045.493.134c.143.089.255.217.333.384s.118.362.118.584v.126zm-.396-.118c0-.252-.048-.445-.143-.58a.465.465 0 00-.384-.202l-.022.001h.001-.016a.468.468 0 00-.384.2l-.001.002c-.096.133-.145.323-.147.567v.131c0 .25.049.444.146.58s.233.205.406.205c.175 0 .31-.067.403-.2.095-.133.142-.328.142-.584v-.118z"/></symbol><symbol id="icon-logo2" viewBox="0 0 25 32"><path  d="M10.447 1.806h.084c.156 0 .324.015.49.03a13.96 13.96 0 012.18.329V.403a12.432 12.432 0 00-2.207-.357l-.042-.002c-.254-.02-.571-.035-.889-.043H9.779c-1.523.006-3.04.201-4.515.582a18.28 18.28 0 00-4.79 1.948v17.475a18.922 18.922 0 014.431-1.75l.135-.029a19.11 19.11 0 013.78-.586l.052-.002h.052c.216-.011.433-.017.655-.018V15.83c-1.78.024-3.493.264-5.129.695l.147-.033c-.603.157-1.185.326-1.731.513l-.623.212V3.591l.266-.128c1.89-.918 4.096-1.513 6.424-1.649l.047-.002.028-.001.029.001h-.001c.248-.012.497-.018.742-.018h.28c.129.003.258.006.388.014z"/><path  d="M14.837 3.651h-.016c-.915 0-1.811-.077-2.684-.225l.094.013c-.277-.047-.55-.103-.814-.164V20.55c1.12.277 2.271.412 3.425.404a18.446 18.446 0 004.644-.61l-.128.029a18.299 18.299 0 004.877-1.995l-.085.047V1.262a19.021 19.021 0 01-4.429 1.751l-.136.03a19.345 19.345 0 01-4.746.609zm6.908.299l.623-.209v13.63l-.266.129c-.903.442-1.962.834-3.065 1.118l-.119.026c-1.331.345-2.7.521-4.074.527-.411 0-.818-.017-1.214-.052l-.426-.038V5.064l.497.033c.361.023.735.034 1.141.034a21.098 21.098 0 005.173-.663 28.128 28.128 0 001.731-.518zM1.684 25.977a.916.916 0 00-.661-.281l-.033.001h.002-.014c-.139 0-.272.028-.393.078l.007-.003a.904.904 0 00-.51.512l-.002.006a1.002 1.002 0 00-.072.386v2.335c-.006.164.026.328.092.479a.83.83 0 00.554.479c.114.031.231.048.349.048a.985.985 0 00.968-.982v-.261h-.61v.221a.53.53 0 01-.038.199l.001-.004a.38.38 0 01-.089.132.426.426 0 01-.255.089.308.308 0 01-.286-.125l-.001-.001a.548.548 0 01-.082-.289l.001-.024v.001-2.177a.74.74 0 01.075-.349.31.31 0 01.262-.143l.038.002H.986h.012c.107 0 .201.052.26.131l.001.001a.494.494 0 01.102.301v.013-.001.202h.604v-.238-.011c0-.143-.027-.28-.077-.405l.003.007a.955.955 0 00-.205-.329zm3.626-.026a1.051 1.051 0 00-1.058-.191.965.965 0 00-.557.511l-.002.006a1.08 1.08 0 00-.089.452v2.239c-.004.158.026.314.089.458a.888.888 0 00.236.313.964.964 0 00.322.197 1.049 1.049 0 001.059-.198l-.001.001a.948.948 0 00.23-.313c.063-.144.093-.301.089-.458v-2.239-.02c0-.156-.033-.305-.092-.439l.003.007a1.016 1.016 0 00-.23-.327zm-.285 3.018l.002.035a.398.398 0 01-.123.289.446.446 0 01-.575 0l.001.001a.398.398 0 01-.121-.326v.002-2.239l-.001-.034a.4.4 0 01.123-.289.446.446 0 01.575 0l-.001-.001a.398.398 0 01.121.326v-.002 2.24zm5.047 1v-4.24h-.586l-.771 2.244h-.01l-.777-2.244h-.58v4.239h.606V27.39h.011l.593 1.823h.302l.598-1.823h.01v2.578h.606zm3.441-3.942a.837.837 0 00-.343-.232 1.31 1.31 0 00-.416-.066h-.024.001-.9v4.24h.604v-1.656h.311c.189.009.376-.031.545-.116a.894.894 0 00.329-.32l.002-.004a1.02 1.02 0 00.139-.369c.021-.133.033-.287.033-.444v-.04.002a2.426 2.426 0 00-.059-.606.906.906 0 00-.223-.39zm-.312 1.292a.538.538 0 01-.057.224l.001-.003a.342.342 0 01-.154.147l-.002.001a.617.617 0 01-.254.054l-.033-.001h.002-.276V26.3h.311l.029-.001c.088 0 .172.02.247.055l-.004-.002a.35.35 0 01.141.154l.001.002a.62.62 0 01.053.236v.282c0 .098.006.201 0 .291H13.2zm3.173-1.59h-.495l-.934 4.24h.604l.177-.911h.823l.178.911h.604l-.958-4.24zm-.557 2.752l.297-1.537h.011l.295 1.537h-.604zm4.46-.198h-.011l-.913-2.554h-.58v4.24h.604v-2.55h.012l.923 2.549h.569v-4.239h-.604v2.554zm3.691-2.554l-.486 1.686h-.012l-.486-1.686h-.639l.83 2.448v1.791h.604v-1.791l.83-2.447h-.64zM0 31.166h.291v.817h.198v-.817h.289v-.167H0v.168zm2.447-.168l-.382.985h.21l.081-.224h.392l.084.224h.215l-.391-.985h-.21zm-.03.595l.134-.365.134.365h-.268zm2.449.027h.228v.127a.378.378 0 01-.234.083h-.014a.25.25 0 01-.195-.094.406.406 0 01-.073-.234l.001-.023v.001c0-.219.095-.329.283-.329l.021-.001c.097 0 .178.067.201.157v.001l.194-.038c-.042-.192-.18-.289-.417-.289h-.013a.492.492 0 00-.331.127.48.48 0 00-.141.38v-.002.023c0 .132.048.254.127.347l-.001-.001c.087.09.209.146.343.146L4.877 32h-.001.016c.155 0 .296-.06.402-.157v-.388h-.426v.166zm2.471-.622h-.199v.985h.689v-.167h-.49v-.817zm2.089 0h-.199v.985h.199v-.985zm2.042.657l-.403-.657h-.193v.985h.185v-.643l.396.643h.198v-.985h-.182v.658zm1.847-.106h.49v-.167h-.49v-.215h.527v-.168h-.727v.985h.747v-.167h-.548v-.266zm4.477-.163h-.388v-.388h-.198v.984h.198v-.431h.388v.431h.198v-.985h-.197v.388zm1.857.163h.492v-.167h-.492v-.215h.529v-.168h-.726v.985h.746v-.167h-.548v-.266zm2.519.001c.171-.027.258-.118.258-.274a.23.23 0 00-.096-.219h-.001a.555.555 0 00-.25-.059l-.04.001h.002-.417v.984h.198v-.412h.055c.039 0 .076.008.109.023l-.002-.001a.201.201 0 01.07.072l.215.313h.236l-.12-.192a.704.704 0 00-.215-.235l-.002-.002zm-.199-.137h-.146v-.247h.156a.515.515 0 01.205.024l-.004-.001a.13.13 0 01-.009.2.537.537 0 01-.164.025l-.039-.001h.002zm2.099.136h.49v-.167h-.49v-.215h.529v-.168h-.728v.985h.747v-.167h-.548v-.266z"/></symbol><symbol id="icon-logo3" viewBox="0 0 31 32"><path  d="M4.722 31.103c.023.001.044.01.06.025l.153.161c-.119.13-.266.234-.431.304a1.533 1.533 0 01-.61.109h-.031c-.196 0-.383-.038-.554-.106l.01.004a1.25 1.25 0 01-.709-.725l-.003-.009a1.575 1.575 0 01-.098-.552v-.02-.02a1.5 1.5 0 01.109-.562l-.004.01a1.32 1.32 0 01.756-.734c.189-.07.39-.104.592-.102.188-.004.375.027.549.093.152.063.291.149.412.257l-.128.171a.134.134 0 01-.032.031.077.077 0 01-.045.014h-.006a.107.107 0 01-.056-.019l-.068-.045-.096-.059a1.024 1.024 0 00-.296-.101l-.006-.001a1.233 1.233 0 00-.209-.018h-.02.001-.016c-.147 0-.288.028-.417.079l.008-.003a.964.964 0 00-.333.216 1.002 1.002 0 00-.216.342 1.248 1.248 0 00-.079.452c-.002.156.025.313.078.46.047.126.119.242.213.341a.863.863 0 00.318.212c.125.049.259.074.394.073.078.001.156-.004.234-.015a.879.879 0 00.354-.122c.054-.034.104-.071.152-.113a.115.115 0 01.072-.03zm4.422-.807c.002.194-.033.387-.103.568a1.246 1.246 0 01-.288.44 1.314 1.314 0 01-.444.286l-.009.003a1.695 1.695 0 01-1.176-.004l.012.004a1.331 1.331 0 01-.45-.29 1.3 1.3 0 01-.288-.436l-.003-.009a1.614 1.614 0 01.004-1.147l-.004.011a1.34 1.34 0 01.29-.447 1.32 1.32 0 01.441-.276l.009-.003A1.674 1.674 0 018.311 29l-.012-.004a1.29 1.29 0 01.741.729c.071.182.106.376.104.571zm-.402 0v-.024c0-.155-.027-.303-.076-.441l.003.009a.907.907 0 00-.522-.554l-.006-.002a1.219 1.219 0 00-.855.003l.009-.003a.903.903 0 00-.528.55l-.002.006a1.465 1.465 0 000 .912.899.899 0 00.524.552l.006.002c.273.097.573.097.846 0a.903.903 0 00.324-.214.972.972 0 00.205-.341 1.29 1.29 0 00.073-.456zm3.418.478l.041.102c.015-.036.028-.069.044-.102.017-.04.034-.073.052-.105l-.003.005.978-1.694c.019-.03.036-.048.056-.053s.043-.009.066-.009h.015-.001.289v2.755h-.342v-2.11l-.001-.048.002-.05v.002l-.984 1.718a.149.149 0 01-.057.062h-.001a.16.16 0 01-.082.022h-.057c-.03.001-.06-.007-.084-.022s-.045-.036-.058-.062v-.001l-1.012-1.73v2.212h-.331v-2.75h.303a.22.22 0 01.068.01h-.002a.107.107 0 01.053.052v.001l.999 1.696c.018.028.035.06.048.094l.001.004zm3.681-.136v1.031h-.383v-2.75h.854c.161-.003.322.017.476.06a.927.927 0 01.337.171c.085.074.15.167.191.27a.925.925 0 01.066.352.84.84 0 01-.071.352.752.752 0 01-.205.274l-.001.001a.953.953 0 01-.333.181l-.007.002a1.498 1.498 0 01-.461.064l-.463-.007zm0-.296h.464c.1.002.201-.013.296-.042a.627.627 0 00.215-.12l-.001.001c.056-.049.1-.11.129-.178l.001-.003a.565.565 0 00.046-.225v-.008l.001-.028a.506.506 0 00-.041-.199l.001.003a.544.544 0 00-.133-.188.763.763 0 00-.517-.148h.003-.464v1.134zm5.146 1.331h-.308a.134.134 0 01-.079-.026.168.168 0 01-.049-.063v-.001l-.26-.665h-1.307l-.27.665a.152.152 0 01-.047.061.135.135 0 01-.082.028h-.307l1.148-2.756h.398l1.164 2.756zm-1.895-1.023h1.079l-.455-1.122a1.845 1.845 0 01-.083-.245l-.003-.013-.044.144a1.282 1.282 0 01-.045.126l.003-.009-.452 1.119zm3.548-1.72c.023.013.043.03.058.05l1.674 2.076v-2.139h.342v2.756h-.196a.164.164 0 01-.074-.017h.001a.233.233 0 01-.061-.051L22.71 29.53a.753.753 0 010 .095v2.049h-.342v-2.756h.203c.024 0 .047.004.068.013zm4.897 1.647v1.094h-.383v-1.094l-1.058-1.66H26.445c.028 0 .054.009.075.024a.251.251 0 01.052.061l.001.001.662 1.07c.045.07.085.151.114.236l.002.008.05-.118a.89.89 0 01.066-.126l.653-1.078a.284.284 0 01.05-.059.117.117 0 01.076-.027h.352l-1.06 1.667zm-15.566-6.284c.167.02.335.037.506.051 2.582-1.101 4.767-2.902 6.281-5.18s2.29-4.93 2.231-7.625l-2.846-2.712c.189.894.297 1.921.297 2.974 0 2.015-.396 3.937-1.115 5.694l.036-.1c-1.09 2.731-2.957 5.12-5.39 6.899z"/><path  d="M10.954 24.167l.077.015c2.601-1.773 4.583-4.247 5.692-7.104.627-1.564.991-3.378.991-5.276 0-1.296-.17-2.553-.488-3.748l.023.101-4.054-3.862c1.269 2.397 2.015 5.239 2.015 8.255 0 .701-.04 1.393-.119 2.074l.008-.083c-.397 3.519-1.834 6.857-4.144 9.628zm13.75-9.443c-.688 2.962-2.361 5.632-4.77 7.616a14.98 14.98 0 01-2.191 1.51l-.075.039a13.579 13.579 0 005.285-2.851l-.016.013a12.774 12.774 0 003.381-4.679l.031-.084-1.645-1.565z"/><path  d="M24.06 14.288l-2.341-2.23a13.684 13.684 0 01-2.23 7.249l.032-.053c-1.394 2.169-3.373 3.943-5.729 5.137h.012c.525 0 1.049-.03 1.571-.089a14.47 14.47 0 005.65-3.95l.014-.017a13.397 13.397 0 003.005-5.958l.016-.089zM11.294 2.664L8.501 0c-2.497.919-4.644 2.535-6.16 4.636S.008 9.225.001 11.775c.01 2.818 1.005 5.552 2.829 7.77s4.372 3.793 7.242 4.476c2.562-2.973 4.061-6.647 4.281-10.488s-.851-7.648-3.059-10.87zm19.218 11.214c-.01-3.343-1.409-6.547-3.89-8.91s-5.843-3.696-9.352-3.706a13.67 13.67 0 00-4.741.841l17.099 16.29c.559-1.335.884-2.886.884-4.513v-.001z"/></symbol><symbol id="icon-logo4" viewBox="0 0 60 32"><path  d="M9.229 9.548h-.002c-1.683 0-3.048 1.331-3.048 2.971v.002c0 1.64 1.365 2.971 3.048 2.971h.002c1.683 0 3.048-1.331 3.048-2.971v-.002c0-1.64-1.365-2.97-3.048-2.97zm22.501-.949a8.508 8.508 0 00-2.59-6.075A8.954 8.954 0 0022.909 0c-2.339.004-4.581.912-6.236 2.523s-2.585 3.797-2.59 6.076v12.566S31.728 19.25 31.73 8.601v-.002zM0 25.289a5.909 5.909 0 001.801 4.226l.002.001a6.223 6.223 0 004.336 1.758 6.215 6.215 0 004.337-1.759l-.002.002a5.906 5.906 0 001.804-4.224v-8.746S0 17.882 0 25.29zm6.14 1.566h-.002c-.331 0-.639-.098-.897-.267l.006.004a1.579 1.579 0 01-.589-.693l-.004-.01a1.506 1.506 0 01-.089-.915l-.002.01c.062-.304.215-.583.439-.802.22-.213.5-.365.814-.427l.01-.002c.312-.061.635-.03.929.089s.545.319.722.577a1.546 1.546 0 01.146 1.481l.004-.01c-.08.191-.199.365-.348.511s-.327.262-.522.341a1.61 1.61 0 01-.616.12H6.14v-.006zm12.532-.971h-1.256v1.297h-.655v-3.173h2.067v.53h-1.412v.819h1.255v.528zm3.143-.218c0 .313-.056.586-.166.822s-.269.417-.476.545a1.29 1.29 0 01-.682.192h-.025.001l-.039.001c-.504 0-.939-.296-1.141-.723l-.003-.008c-.109-.23-.173-.5-.173-.785v-.028.001-.158c0-.313.056-.588.168-.825a1.26 1.26 0 01.477-.547c.206-.128.442-.192.707-.192s.499.064.704.192c.206.127.365.309.477.547s.17.511.17.822v.141zm-.662-.144c0-.333-.06-.586-.179-.759a.585.585 0 00-.485-.26l-.027.001h.001-.024a.58.58 0 00-.482.256l-.001.002c-.119.17-.18.42-.182.749v.155c0 .324.06.576.179.755s.291.268.515.268l.026.001c.2 0 .375-.101.479-.255l.001-.002c.118-.173.177-.424.179-.755v-.155zm2.783.826v-.018a.329.329 0 00-.131-.264l-.001-.001c-.087-.067-.244-.137-.47-.21a3.363 3.363 0 01-.558-.227l.019.009c-.36-.195-.541-.457-.541-.787 0-.171.048-.324.144-.458s.236-.24.417-.316c.182-.075.385-.113.61-.113s.429.042.606.124a.947.947 0 01.412.347c.099.15.149.32.149.511h-.655a.422.422 0 00-.137-.338c-.092-.082-.22-.123-.386-.123-.16 0-.284.034-.372.103a.315.315 0 00-.134.259v.008c0 .103.052.189.155.259.105.07.258.135.461.196.372.112.643.251.813.417s.255.372.255.618c0 .275-.104.491-.312.647s-.487.234-.839.234c-.244 0-.467-.045-.667-.133a1.081 1.081 0 01-.458-.365l-.002-.003a.934.934 0 01-.157-.522v-.019.001h.656c0 .35.21.525.628.525a.616.616 0 00.365-.094.312.312 0 00.131-.253v-.014.001zm3.49-1.811h-.972v2.644H25.8v-2.644h-.959v-.53h2.586v.53zm2.286 1.268h-1.256v.85h1.474v.525h-2.128v-3.173h2.124v.53h-1.47v.756h1.256v.513zm1.777.214h-.521v1.162h-.655v-3.173h1.18c.374 0 .664.083.868.251s.305.403.305.708a.992.992 0 01-.141.543.955.955 0 01-.419.341l-.006.002.687 1.297v.03h-.703l-.595-1.162zm-.521-.53h.528c.164 0 .291-.042.381-.124a.45.45 0 00.136-.323l-.001-.025v.001a.474.474 0 00-.129-.353c-.084-.086-.214-.129-.39-.129h-.526v.953zm3.963.573v1.119h-.655v-3.173h1.239c.238 0 .447.043.628.131s.321.211.418.372c.097.16.146.342.146.548 0 .311-.106.557-.32.737-.212.179-.506.268-.883.268h-.573zm0-.529h.584c.173 0 .305-.041.394-.123.092-.081.138-.197.138-.348l.001-.023a.522.522 0 00-.139-.355.519.519 0 00-.38-.149h-.599v.997zm4.138.272h-1.255v.85h1.474v.525H37.16v-3.173h2.124v.53h-1.469v.756h1.255v.513zm3.035-1.268h-.972v2.644h-.655v-2.644h-.959v-.53h2.585v.53zm2.284 1.268h-1.255v.85h1.474v.525h-2.128v-3.173h2.124v.53h-1.47v.756h1.256v.513zm1.778.214h-.521v1.162h-.654v-3.173h1.18c.375 0 .665.083.868.251s.305.403.305.708a.983.983 0 01-.141.543.95.95 0 01-.419.341l-.006.002.687 1.297v.03h-.703l-.595-1.162zm-.521-.53h.528c.164 0 .29-.042.381-.124a.448.448 0 00.135-.322l-.001-.026v.001a.474.474 0 00-.128-.353c-.085-.086-.214-.129-.391-.129h-.525v.953zm3.843.859l.001-.018a.334.334 0 00-.13-.264l-.001-.001c-.088-.067-.245-.137-.471-.21a3.363 3.363 0 01-.558-.227l.019.009c-.36-.195-.541-.457-.541-.787 0-.171.048-.324.144-.458s.236-.24.417-.316c.181-.075.385-.113.61-.113s.429.042.606.124a.953.953 0 01.412.347c.099.15.149.32.149.511h-.655a.422.422 0 00-.137-.338c-.092-.082-.22-.123-.386-.123-.16 0-.284.034-.372.103a.315.315 0 00-.134.259v.008c0 .103.052.189.155.259.105.07.258.135.46.196.372.112.644.251.813.417s.255.372.255.618c0 .275-.104.491-.312.647s-.487.234-.839.234c-.244 0-.467-.045-.667-.133a1.087 1.087 0 01-.458-.365l-.002-.003a.934.934 0 01-.157-.522v-.019.001h.656c0 .35.208.525.627.525a.616.616 0 00.365-.094.311.311 0 00.13-.253v-.014.001z"/></symbol><symbol id="icon-logo5" viewBox="0 0 40 32"><path  d="M3.056 26.742c.157.194.24.438.236.688l.001.053c0 .324-.141.615-.365.815l-.001.001a1.575 1.575 0 01-1.061.317H.001v-4.361h1.827a1.548 1.548 0 011.017.294l-.004-.003a.994.994 0 01.353.818v-.003c.011.24-.065.477-.212.667a.99.99 0 01-.556.34c.247.046.471.177.63.373zm-2.188-.658h.78a.733.733 0 00.497-.145.518.518 0 00.169-.383l-.002-.045v.002l.001-.037a.535.535 0 00-.167-.389.75.75 0 00-.514-.147h.003-.767v1.144zm1.354 1.672a.542.542 0 00.186-.408l-.001-.036v.002l.001-.032a.552.552 0 00-.189-.416l-.001-.001a.8.8 0 00-.48-.159l-.054.002h.002-.818v1.199h.829a.816.816 0 00.524-.151zm4.567.861l-1.016-1.704h-.382v1.704h-.874v-4.361h1.654a1.624 1.624 0 011.156.373l-.003-.002a1.391 1.391 0 01.12 1.808l.003-.004a1.337 1.337 0 01-.789.443l1.083 1.743H6.79zm-1.397-2.299h.715c.497 0 .745-.22.745-.66l.001-.037a.647.647 0 00-.184-.453.767.767 0 00-.566-.177h.003-.724l.009 1.328zm6.176 1.421H9.826l-.308.878h-.916l1.6-4.313h.991l1.593 4.312h-.916l-.301-.878zm-.233-.66l-.637-1.84-.637 1.84h1.273zm6.215 1.538h-.869l-1.945-2.965v2.965h-.866v-4.361h.866l1.945 2.982v-2.982h.868v4.361zm4.952-1.044c-.182.33-.45.593-.775.764l-.01.005a2.545 2.545 0 01-1.22.274h-1.546v-4.361h1.546l.067-.001c.42 0 .817.1 1.168.277l-.015-.007c.332.168.606.433.785.761.171.333.272.727.272 1.144s-.1.811-.278 1.158l.007-.014zm-.993-.104c.239-.278.384-.642.384-1.041s-.145-.763-.386-1.043l.002.002a1.5 1.5 0 00-1.091-.371h.004-.603v2.823h.603a1.496 1.496 0 001.088-.372l-.002.001zM12.112 0s11.201 4.246 10.962 10.39v10.392S11.881 16.534 12.115 10.39L12.112 0zm20.942 18.349a15.15 15.15 0 017.049-2.628l.068-.006v-3.253c-2.995 1.181-5.436 3.227-7.081 5.827l-.035.06z"/><path  d="M31.782 19.329c1.749-3.487 4.693-6.158 8.283-7.513l.105-.035V2.408S24.218 8.456 24.555 17.205v14.796s.711-.27 1.829-.778c0-.473 0-.95.051-1.43a15.39 15.39 0 015.325-10.446l.021-.017z"/><path  d="M30.266 24.825a15.3 15.3 0 01.558-3.03 14.243 14.243 0 00-3.378 8.921v.016a43.71 43.71 0 003.286-1.741l-.218.118c-.191-.908-.3-1.952-.3-3.021 0-.445.019-.885.056-1.32l-.004.057zm.634.053a14.803 14.803 0 00.212 3.971l-.015-.092c4.358-2.619 9.255-6.664 9.067-11.553v-.426a14.265 14.265 0 00-8.297 3.894l.005-.005a14.228 14.228 0 00-.968 4.158l-.003.052z"/></symbol><symbol id="icon-logo6" viewBox="0 0 62 32"><path  d="M31.124 14.854a2.264 2.264 0 01-.397-1.431v-2.075c0-.636.132-1.119.395-1.45s.715-.495 1.356-.494c.602 0 1.029.141 1.282.422.276.359.41.798.379 1.241v.488h-1.077v-.494a2.787 2.787 0 00-.031-.483.482.482 0 00-.154-.287.587.587 0 00-.39-.112.619.619 0 00-.41.118.563.563 0 00-.178.317 2.594 2.594 0 00-.042.513v2.518c-.017.243.031.486.138.707.054.075.128.134.215.171s.183.051.278.04a.545.545 0 00.381-.114.521.521 0 00.161-.306c.025-.167.036-.336.033-.505v-.511h1.077v.466c.03.462-.101.92-.372 1.304-.248.308-.669.462-1.289.462s-1.088-.165-1.353-.507zM35.607 14.876c-.272-.323-.408-.794-.408-1.416v-2.182c0-.616.136-1.083.408-1.399s.727-.474 1.364-.473c.633 0 1.086.158 1.358.473.272.317.41.783.41 1.399v2.182c0 .616-.138 1.089-.415 1.414s-.727.488-1.353.488-1.09-.165-1.364-.485zm1.866-.524c.097-.202.142-.424.129-.646v-2.672a1.275 1.275 0 00-.127-.633c-.055-.076-.131-.137-.22-.174s-.187-.05-.284-.037c-.097-.013-.195 0-.285.037s-.166.097-.221.174a1.255 1.255 0 00-.129.633v2.685c-.014.222.031.444.129.646.063.068.14.123.227.16a.708.708 0 00.554 0 .664.664 0 00.227-.16v-.013zM40.035 9.468h1.159l.872 4.027.892-4.027h1.128l.114 5.812h-.834l-.089-4.04-.861 4.04h-.669l-.892-4.054-.082 4.054h-.843l.105-5.812zM45.5 9.468h1.806c1.04 0 1.561.55 1.561 1.65 0 1.054-.548 1.58-1.643 1.579h-.615v2.583h-1.115l.007-5.812zm1.542 2.484c.11.013.222.004.328-.028s.203-.085.285-.156c.128-.196.184-.427.16-.656a1.999 1.999 0 00-.053-.528c-.016-.058-.044-.112-.082-.159s-.086-.087-.141-.117a1.072 1.072 0 00-.497-.093h-.432v1.737h.432zM50.474 9.468h1.197l1.228 5.812H51.86l-.243-1.34h-1.068l-.25 1.34h-1.055l1.228-5.812zm1.023 3.799l-.417-2.44-.417 2.44h.834zM53.891 9.468h.78l1.494 3.316V9.468h.925v5.812h-.742l-1.503-3.461v3.461h-.956l.002-5.812zM59.258 13.064l-1.242-3.588h1.046l.758 2.305.711-2.305h1.023l-1.226 3.588v2.216h-1.07v-2.216zM32.845 17.822v.304h-.91v2.362h-.381v-2.362h-.914v-.304h2.205zM35.697 20.488h-.294a.124.124 0 01-.083-.025.139.139 0 01-.049-.061l-.263-.633h-1.262l-.263.633a.177.177 0 01-.04.072.122.122 0 01-.083.025h-.294l1.115-2.666h.388l1.128 2.655zm-1.847-.99h1.052l-.446-1.085a2.234 2.234 0 01-.083-.251l-.042.141-.04.112-.441 1.083zM37.618 20.226a1.071 1.071 0 00.388-.032c.055-.013.108-.029.16-.049.049-.019.098-.042.149-.065v-.599h-.446c-.011.001-.022-.001-.032-.005a.081.081 0 01-.045-.039.05.05 0 01-.005-.027v-.205h.865v1.022a1.521 1.521 0 01-.47.218 1.86 1.86 0 01-.279.055 3.22 3.22 0 01-.326.017 1.56 1.56 0 01-.562-.099 1.34 1.34 0 01-.446-.279 1.3 1.3 0 01-.288-.422 1.459 1.459 0 01-.103-.553c-.002-.19.032-.379.1-.557.064-.158.162-.302.288-.422.127-.12.279-.214.446-.277.191-.068.394-.102.597-.099.104 0 .207.008.31.023a1.393 1.393 0 01.488.174c.068.042.133.088.194.139l-.107.165a.098.098 0 01-.087.051.136.136 0 01-.069-.021 1.538 1.538 0 01-.109-.063.975.975 0 00-.149-.072 1.301 1.301 0 00-.205-.059 1.574 1.574 0 00-.283-.023 1.187 1.187 0 00-.43.074.93.93 0 00-.328.211.943.943 0 00-.207.331c-.1.289-.1.6 0 .889a.964.964 0 00.549.547c.142.046.292.064.441.053zM41.172 20.184h1.217v.304h-1.59v-2.666h.381l-.009 2.362zM43.656 20.488h-.381v-2.666h.381v2.666zM45.074 17.834a.183.183 0 01.058.049l1.63 2.009a.753.753 0 010-.095V17.81h.332v2.676h-.192a.17.17 0 01-.083-.015.196.196 0 01-.06-.051l-1.628-2.007v2.073h-.319V17.82h.198c.022 0 .043.004.062.013zM49.901 17.822v.293H48.55v.88h1.095v.283H48.55v.91h1.351v.293h-1.743v-2.659h1.743zM9.95 1.359L26.879 5.91v15.946L9.95 17.308V1.36zM8.864 0v18.082l19.098 5.135V5.137L8.864 0z"/><path  d="M19.1 31.611L0 26.472V8.392l19.1 5.137v18.082z"/><path  d="M9.181 1.155l16.708 4.493-7.105 6.729-16.71-4.496 7.108-6.726zM8.864 0L0 8.392l19.1 5.137 8.862-8.392L8.864 0zM20.175 30.593l7.788-7.374-7.788-2.096v9.47z"/></symbol></defs></svg>